<?xml version="1.0" encoding="utf-8"?>
<!-- Generator: Adobe Illustrator 26.0.1, SVG Export Plug-In . SVG Version: 6.00 Build 0)  -->
<svg version="1.1" id="Camada_1" xmlns="http://www.w3.org/2000/svg" xmlns:xlink="http://www.w3.org/1999/xlink" x="0px" y="0px"
	 viewBox="0 0 2909 837" style="enable-background:new 0 0 2909 837;" xml:space="preserve">
<style type="text/css">
	.st0{fill:#F71963;}
	.st1{fill:#142032;}
</style>
<g>
	<g>
		<path class="st0" d="M651.11,240.57H320.05c-25.67,0-42.11,27.29-30.1,49.98l33.11,62.71h-60.03c-12.19,0-22.07,9.89-22.07,22.08
			c0,3.58,0.87,7.11,2.54,10.28l106.51,201.6c5.71,10.77,19.07,14.88,29.84,9.18c3.91-2.07,7.11-5.27,9.18-9.18l28.93-54.46
			l36.29,68.71c12.77,24.17,47.37,24.21,60.19,0.07l165.94-312.26C692.12,267.2,676.12,240.57,651.11,240.57 M502.4,373.99
			l-71.55,134.67c-3.8,7.17-12.7,9.9-19.87,6.1c-2.6-1.38-4.72-3.5-6.1-6.1l-70.86-134.1c-3.8-7.17-1.06-16.06,6.11-19.86
			c2.11-1.12,4.45-1.7,6.83-1.71h142.81c7.9,0,14.3,6.4,14.3,14.3C504.07,369.62,503.5,371.92,502.4,373.99 M1003.23,385.43h-36.21
			v124.11c-0.01,2.35-1.91,4.26-4.27,4.27h-27.93c-2.35-0.01-4.26-1.91-4.27-4.27V385.43h-36.43c-2.26,0.09-4.17-1.67-4.26-3.93
			c0-0.04,0-0.08,0-0.13v-21.95c0.02-2.26,1.87-4.08,4.14-4.06c0.04,0,0.09,0,0.13,0h109.09c2.35-0.11,4.36,1.7,4.48,4.05v21.96
			C1007.58,383.74,1005.58,385.54,1003.23,385.43 M1119.48,512.92c-7.46,1.06-20.01,2.77-43.04,2.77c-27.5,0-51.8-7.04-51.8-45.83
			v-70.81c0-38.8,24.52-45.62,52.01-45.62c23.01,0,35.36,1.71,42.83,2.77c2.98,0.42,4.27,1.5,4.27,4.27v19.85
			c-0.01,2.35-1.91,4.26-4.27,4.27h-44.95c-10.02,0-13.64,3.41-13.64,14.5v19.4h56.89c2.35,0,4.26,1.91,4.27,4.27V443
			c0,2.35-1.91,4.26-4.27,4.27h-56.89v22.6c0,11.08,3.62,14.5,13.64,14.5h44.95c2.35,0.01,4.26,1.91,4.27,4.27v19.83
			C1123.75,511.21,1122.47,512.49,1119.48,512.92 M1280.33,513.77h-33.89c-2.77,0-4.05-0.89-5.54-3.19l-29.39-46.66l-26.63,45.63
			c-1.5,2.56-2.98,4.27-5.31,4.27h-31.55c-2.13,0-3.2-1.28-3.2-2.77c0.04-0.52,0.19-1.03,0.42-1.5l46.18-77.01l-46.66-73.12
			c-0.24-0.39-0.38-0.83-0.42-1.28c0.16-1.63,1.56-2.84,3.19-2.77h34.32c2.34,0,4.05,2.13,5.31,4.05l27.27,43.06l26.4-43.06
			c1.06-1.92,2.98-4.05,5.31-4.05h31.55c1.63-0.07,3.04,1.14,3.2,2.77c-0.04,0.45-0.19,0.89-0.43,1.28l-46.43,73.58l48.42,76.56
			c0.38,0.65,0.6,1.38,0.64,2.13C1283.11,512.92,1282.04,513.77,1280.33,513.77 M869.06,355.77c0.25,0,0.49,0.03,0.73,0.08
			c1.77,0.41,2.88,2.17,2.47,3.94c0,0-36.96,130.93-37.56,132.7c-5.06,15.25-18.01,23.09-32.85,23.09
			c-15.58,0-27.82-7.48-32.87-23.13c-0.42-1.29-38.21-132.64-38.21-132.64c-0.06-0.24-0.08-0.49-0.08-0.74
			c0-1.82,1.47-3.29,3.29-3.3h30.46c1.57,0,2.92,1.12,3.22,2.66l30.98,114.56c0.43,2.31,1.06,3.19,2.98,3.19s2.56-0.85,2.98-3.19
			l30.95-114.53c0.3-1.54,1.65-2.65,3.22-2.66L869.06,355.77z"/>
	</g>
</g>
<path class="st0" d="M649.45,241.45H319.76c-25.56,0-41.93,27.18-29.97,49.77l32.98,62.45h-59.79c-12.14,0-21.98,9.85-21.98,21.99
	c0,3.57,0.87,7.08,2.53,10.24l106.08,200.77c5.68,10.73,18.99,14.82,29.72,9.14c3.89-2.06,7.08-5.25,9.14-9.14l28.81-54.23
	l36.14,68.42c12.72,24.07,47.18,24.11,59.94,0.07l165.25-310.97C690.29,267.96,674.36,241.45,649.45,241.45 M501.35,374.31
	L430.1,508.43c-3.79,7.14-12.64,9.86-19.78,6.07c-2.59-1.37-4.7-3.49-6.07-6.07l-70.57-133.55c-3.78-7.14-1.06-16,6.08-19.78
	c2.1-1.11,4.43-1.7,6.81-1.7h142.22c7.86,0,14.24,6.37,14.24,14.24C503.02,369.96,502.45,372.26,501.35,374.31 M1000.13,385.71
	h-36.06v123.6c-0.01,2.34-1.9,4.24-4.25,4.25H932c-2.34-0.01-4.24-1.9-4.25-4.25v-123.6h-36.28c-2.25,0.09-4.15-1.66-4.25-3.91
	c0-0.04,0-0.08,0-0.13v-21.86c0.02-2.25,1.87-4.06,4.12-4.04c0.04,0,0.08,0,0.13,0h108.64c2.34-0.11,4.34,1.69,4.46,4.04v21.87
	C1004.45,384.02,1002.46,385.82,1000.13,385.71 M1115.9,512.67c-7.43,1.06-19.93,2.76-42.86,2.76c-27.39,0-51.59-7.01-51.59-45.65
	v-70.52c0-38.64,24.42-45.43,51.8-45.43c22.92,0,35.22,1.7,42.65,2.76c2.97,0.42,4.25,1.49,4.25,4.25v19.77
	c-0.01,2.34-1.9,4.24-4.25,4.25h-44.76c-9.98,0-13.58,3.39-13.58,14.44v19.32h56.66c2.34,0,4.24,1.9,4.25,4.25v20.17
	c0,2.34-1.9,4.24-4.25,4.25h-56.66v22.51c0,11.04,3.6,14.44,13.58,14.44h44.76c2.34,0.01,4.24,1.9,4.25,4.25v19.75
	C1120.15,510.97,1118.87,512.25,1115.9,512.67 M1276.08,513.52h-33.75c-2.76,0-4.04-0.88-5.52-3.18l-29.27-46.47l-26.52,45.44
	c-1.49,2.55-2.97,4.25-5.29,4.25h-31.42c-2.12,0-3.18-1.28-3.18-2.76c0.04-0.52,0.19-1.03,0.42-1.49l45.99-76.69l-46.47-72.82
	c-0.24-0.39-0.38-0.83-0.42-1.28c0.16-1.62,1.56-2.83,3.18-2.76h34.18c2.34,0,4.04,2.12,5.29,4.04l27.16,42.89l26.29-42.89
	c1.06-1.91,2.97-4.04,5.29-4.04h31.42c1.63-0.07,3.02,1.14,3.18,2.76c-0.04,0.45-0.19,0.89-0.42,1.28l-46.24,73.27l48.22,76.24
	c0.38,0.65,0.59,1.38,0.63,2.13C1278.85,512.67,1277.78,513.52,1276.08,513.52 M866.5,356.17c0.24,0,0.49,0.03,0.73,0.08
	c1.77,0.4,2.87,2.16,2.46,3.93c0,0-36.8,130.39-37.4,132.15c-5.04,15.19-17.94,22.99-32.71,22.99c-15.52,0-27.71-7.45-32.73-23.03
	c-0.41-1.29-38.06-132.1-38.06-132.1c-0.06-0.24-0.08-0.49-0.08-0.74c0-1.81,1.46-3.28,3.27-3.28h30.33c1.56,0,2.91,1.11,3.21,2.64
	l30.85,114.09c0.42,2.3,1.06,3.18,2.97,3.18s2.55-0.85,2.97-3.18l30.82-114.06c0.3-1.53,1.65-2.64,3.21-2.64L866.5,356.17z"/>
<g>
	<path class="st1" d="M1743.46,248.49h-26.25v73.58H1705v-73.58h-26.25v-10.23h64.71V248.49z"/>
	<path class="st1" d="M1755.78,322.07v-84.18h10.72v38.58h0.37c2.46-11.09,9.12-16.64,19.35-16.64c13.56,0,21.2,7.76,21.2,24.53
		v37.59h-11.34v-36.97c0-9.37-4.81-15.04-14.54-15.04c-9.74,0-14.42,5.67-14.42,15.04v37.1H1755.78z"/>
	<path class="st1" d="M1877.3,292.37h-43.88c0.25,13.19,5.67,21.45,17.5,21.45c8.01,0,14.05-3.82,15.65-12.2l10.48,2.59
		c-2.34,11.83-11.96,19.1-26.5,19.1c-18.86,0-28.96-12.32-28.96-30.81c0-19.1,10.72-32.66,29.46-32.66
		c16.52,0,26.38,10.6,26.38,29.58C1877.42,291.51,1877.3,291.75,1877.3,292.37z M1834.04,284.48h31.31
		c-0.37-9.49-5.55-15.41-14.91-15.41C1841.43,269.07,1835.76,274.5,1834.04,284.48z"/>
	<path class="st1" d="M1924.25,322.07v-83.81h55.09v10.72h-42.89v24.16h36.73v10.6h-36.73v27.61h43.01v10.72H1924.25z"/>
	<path class="st1" d="M1992.04,322.07v-60.89h10.72v15.41h0.37c2.34-11.22,9.12-16.76,19.35-16.76c13.56,0,21.2,7.76,21.2,24.53
		v37.71h-11.34v-37.1c0-9.37-4.56-15.04-13.93-15.04c-10.11,0-15.04,5.67-15.04,15.04v37.1H1992.04z"/>
	<path class="st1" d="M2093.59,311.84l-1.48,9.98c-3.08,0.86-7.39,1.48-11.59,1.48c-9.86,0-16.15-3.57-16.15-14.91v-37.71h-10.23
		v-6.9c9.24-2.59,12.94-7.64,14.05-19.47h7.52v16.89h17.13v9.49h-17.13v35.25c0,5.92,2.59,7.52,7.76,7.52
		C2087.43,313.44,2091.13,312.58,2093.59,311.84z"/>
	<path class="st1" d="M2158.67,292.37h-43.88c0.25,13.19,5.67,21.45,17.5,21.45c8.01,0,14.05-3.82,15.65-12.2l10.48,2.59
		c-2.34,11.83-11.96,19.1-26.5,19.1c-18.86,0-28.96-12.32-28.96-30.81c0-19.1,10.72-32.66,29.46-32.66
		c16.52,0,26.38,10.6,26.38,29.58C2158.79,291.51,2158.67,291.75,2158.67,292.37z M2115.4,284.48h31.31
		c-0.37-9.49-5.55-15.41-14.91-15.41C2122.8,269.07,2117.13,274.5,2115.4,284.48z"/>
	<path class="st1" d="M2173.58,322.07v-60.89h10.6v17.62h0.37c3.33-14.91,9-18.86,17.87-18.86c1.97,0,4.56,0.25,6.29,0.62
		l0.62,11.34c-1.73-0.37-4.56-0.62-6.9-0.62c-11.22,0-17.5,6.66-17.5,18.49v32.29H2173.58z"/>
	<path class="st1" d="M2219.92,345v-83.81h11.22v16.27h0.25c3.2-11.22,9.49-17.38,20.46-17.38c14.3,0,25.88,10.72,25.88,31.92
		c0,21.08-11.09,31.31-25.14,31.31c-10.72,0-18.49-4.44-21.2-19.35h-0.12V345H2219.92z M2265.76,292c0-14.79-7.15-22.06-17.13-22.06
		c-9.86,0-17.13,7.39-17.13,22.06c0,14.3,7.03,21.32,17.13,21.32C2258.86,313.32,2265.76,306.29,2265.76,292z"/>
	<path class="st1" d="M2293.25,322.07v-60.89h10.6v17.62h0.37c3.33-14.91,9-18.86,17.87-18.86c1.97,0,4.56,0.25,6.29,0.62
		l0.62,11.34c-1.73-0.37-4.56-0.62-6.9-0.62c-11.22,0-17.5,6.66-17.5,18.49v32.29H2293.25z"/>
	<path class="st1" d="M2337.74,244.42c0-4.56,2.83-7.52,7.76-7.52c4.81,0,7.52,2.96,7.52,7.52c0,4.44-2.71,7.4-7.52,7.4
		C2340.57,251.82,2337.74,248.86,2337.74,244.42z M2339.71,322.07v-60.89h11.22v60.89H2339.71z"/>
	<path class="st1" d="M2365.59,303.09l11.71-2.46c0.99,9.37,6.9,13.56,15.41,13.56c9.49,0,14.42-3.7,14.42-9.86
		c0-5.79-4.68-7.52-12.45-8.75l-9.86-1.48c-8.38-1.36-17.13-4.93-17.13-15.9c0-11.46,10.11-18.24,23.79-18.24
		c12.82,0,23.42,6.16,24.9,18.24l-11.22,2.46c-0.99-8.01-6.29-11.83-14.17-11.83c-6.9,0-11.83,2.96-11.83,8.5
		c0,5.18,4.07,6.66,9.98,7.64l9,1.36c10.23,1.73,20.58,4.19,20.58,16.64c0,13.19-9.98,20.34-25.76,20.34
		C2377.54,323.3,2366.58,316.4,2365.59,303.09z"/>
	<path class="st1" d="M2484.77,292.37h-43.88c0.25,13.19,5.67,21.45,17.5,21.45c8.01,0,14.05-3.82,15.65-12.2l10.48,2.59
		c-2.34,11.83-11.96,19.1-26.5,19.1c-18.86,0-28.96-12.32-28.96-30.81c0-19.1,10.72-32.66,29.46-32.66
		c16.52,0,26.38,10.6,26.38,29.58C2484.89,291.51,2484.77,291.75,2484.77,292.37z M2441.51,284.48h31.31
		c-0.37-9.49-5.55-15.41-14.91-15.41C2448.9,269.07,2443.23,274.5,2441.51,284.48z"/>
	<path class="st1" d="M1685.53,469.97v-83.81h26.13c29.83,0,45.36,14.67,45.36,41.78c0,27.24-15.53,42.03-45.36,42.03H1685.53z
		 M1697.73,459.61h13.31c23.54,0,33.15-11.71,33.15-31.68c0-19.84-9.61-31.43-33.15-31.43h-13.31V459.61z"/>
	<path class="st1" d="M1770.07,392.32c0-4.56,2.83-7.52,7.76-7.52c4.81,0,7.52,2.96,7.52,7.52c0,4.44-2.71,7.4-7.52,7.4
		C1772.91,399.71,1770.07,396.76,1770.07,392.32z M1772.05,469.97v-60.89h11.22v60.89H1772.05z"/>
	<path class="st1" d="M1857.95,472.92c0,14.05-13.68,21.08-32.66,21.08s-29.09-4.68-29.09-14.42c0-6.65,4.68-10.97,15.53-12.32
		c-1.36-0.12-2.59-0.49-3.7-0.86c-4.19-1.48-6.53-4.19-6.53-8.5c0-5.55,4.81-9.37,14.3-9.86c-9.12-2.46-15.41-8.63-15.41-18.98
		c0-10.48,7.89-19.97,28.96-19.97h25.76v10.11h-2.71c-3.2-3.57-7.52-5.3-19.1-5.3l-0.12,0.25c12.57,2.83,16.15,9,16.15,15.41
		c0,12.2-10.11,19.6-23.79,19.6c-2.46,0-4.93-0.25-7.15-0.62c-4.93,0.62-6.53,2.83-6.53,5.3c0,2.46,1.6,3.82,5.79,3.94
		c4.07,0,12.82-0.62,18.73-0.49C1850.8,457.27,1857.95,462.08,1857.95,472.92z M1846.24,474.4c0-4.68-3.33-7.03-11.71-7.15
		c-5.3,0-12.2,0.37-17.5,0.37h-0.62c-5.55,0.86-8.75,3.57-8.75,7.64c0,6.29,6.78,9.12,18.12,9.12
		C1837.74,484.39,1846.24,481.06,1846.24,474.4z M1825.17,440.26c8.5,0,12.57-4.07,12.57-11.09s-4.07-11.09-12.57-11.09
		c-8.63,0-13.06,4.07-13.06,11.09S1816.54,440.26,1825.17,440.26z"/>
	<path class="st1" d="M1867.56,392.32c0-4.56,2.83-7.52,7.76-7.52c4.81,0,7.52,2.96,7.52,7.52c0,4.44-2.71,7.4-7.52,7.4
		C1870.39,399.71,1867.56,396.76,1867.56,392.32z M1869.53,469.97v-60.89h11.22v60.89H1869.53z"/>
	<path class="st1" d="M1933.13,459.74l-1.48,9.98c-3.08,0.86-7.39,1.48-11.59,1.48c-9.86,0-16.15-3.57-16.15-14.91v-37.71h-10.23
		v-6.9c9.24-2.59,12.94-7.64,14.05-19.47h7.52v16.89h17.13v9.49h-17.13v35.25c0,5.92,2.59,7.52,7.76,7.52
		C1926.96,461.34,1930.66,460.48,1933.13,459.74z"/>
	<path class="st1" d="M1997.59,433.48v36.48h-10.72v-18.24h-0.25c-2.83,13.06-12.08,19.47-22.92,19.47
		c-11.46,0-19.6-5.67-19.6-17.13c0-13.43,12.08-17.5,24.53-19.23l17.62-2.46c-0.25-10.23-5.79-14.67-14.54-14.67
		c-7.39,0-13.56,4.07-14.91,12.45l-10.6-3.7c2.1-11.34,11.71-18.73,26.01-18.73C1987.6,407.73,1997.59,416.35,1997.59,433.48z
		 M1986.37,440.76l-15.9,2.34c-8.01,1.23-14.67,2.96-14.67,9.98c0,5.92,4.31,8.38,10.35,8.38
		C1978.6,461.46,1986.37,450,1986.37,440.76z"/>
	<path class="st1" d="M2015.08,469.97v-83.81h11.34v83.81H2015.08z"/>
	<path class="st1" d="M2071.28,428.19c0-27.73,16.02-43.14,39.07-43.14c18.36,0,32.29,11.22,35.5,30.69l-12.2,2.47
		c-2.71-15.04-10.97-22.18-24.03-22.18c-15.78,0-25.88,11.83-25.88,32.17c0,20.09,10.35,32.17,25.88,32.17
		c13.06,0,22.55-7.89,24.28-24.4l12.33,2.83c-2.59,21.08-17.62,32.54-36.85,32.54C2087.06,471.32,2071.28,455.79,2071.28,428.19z"/>
	<path class="st1" d="M2156.08,439.52c0-20.83,13.43-31.8,30.07-31.8c16.76,0,29.95,10.97,29.95,31.8
		c0,20.71-13.19,31.68-29.95,31.68C2169.51,471.2,2156.08,460.23,2156.08,439.52z M2204.27,439.52c0-13.93-7.15-21.69-18.12-21.69
		c-10.85,0-18.12,7.77-18.12,21.69c0,13.8,7.27,21.69,18.12,21.69C2197.12,461.22,2204.27,453.33,2204.27,439.52z"/>
	<path class="st1" d="M2231.62,469.97v-60.89h11.09v13.06h0.12c1.73-8.63,7.64-14.42,18.24-14.42c10.23,0,17.38,5.05,18.61,14.91
		h0.12c1.48-8.75,7.39-14.91,18.36-14.91c11.59,0,18.86,7.03,18.86,20.71v41.41h-11.22v-39.19c0-8.01-4.93-12.94-12.94-12.94
		c-7.89,0-12.82,5.3-12.82,14.54v37.59h-11.34v-38.58c0-8.87-4.93-13.56-12.94-13.56c-7.89,0-12.82,4.68-12.82,13.56v38.7H2231.62z"
		/>
	<path class="st1" d="M2333.18,469.97v-60.89h11.09v13.06h0.12c1.73-8.63,7.64-14.42,18.24-14.42c10.23,0,17.38,5.05,18.61,14.91
		h0.12c1.48-8.75,7.4-14.91,18.36-14.91c11.59,0,18.86,7.03,18.86,20.71v41.41h-11.22v-39.19c0-8.01-4.93-12.94-12.94-12.94
		c-7.89,0-12.82,5.3-12.82,14.54v37.59h-11.34v-38.58c0-8.87-4.93-13.56-12.94-13.56c-7.89,0-12.82,4.68-12.82,13.56v38.7H2333.18z"
		/>
	<path class="st1" d="M2488.47,440.26h-43.88c0.25,13.19,5.67,21.45,17.5,21.45c8.01,0,14.05-3.82,15.65-12.2l10.48,2.59
		c-2.34,11.83-11.96,19.1-26.5,19.1c-18.86,0-28.96-12.32-28.96-30.81c0-19.1,10.72-32.66,29.46-32.66
		c16.52,0,26.38,10.6,26.38,29.58C2488.59,439.4,2488.47,439.65,2488.47,440.26z M2445.21,432.38h31.31
		c-0.37-9.49-5.55-15.41-14.91-15.41C2452.6,416.97,2446.93,422.39,2445.21,432.38z"/>
	<path class="st1" d="M2503.38,469.97v-60.89h10.6v17.62h0.37c3.33-14.91,9-18.86,17.87-18.86c1.97,0,4.56,0.25,6.29,0.62
		l0.62,11.34c-1.73-0.37-4.56-0.62-6.9-0.62c-11.22,0-17.5,6.66-17.5,18.49v32.29H2503.38z"/>
	<path class="st1" d="M2544.54,439.65c0-20.71,13.31-31.8,30.57-31.8c13.93,0,24.28,7.03,26.5,21.69l-10.97,2.34
		c-1.6-9.98-7.27-14.05-16.02-14.05c-10.6,0-18.12,7.27-18.12,21.94c0,15.28,8.01,21.45,18.24,21.45c8.26,0,13.8-4.56,16.27-14.79
		l10.97,1.97c-2.22,14.91-12.57,22.8-27.85,22.8C2557.49,471.2,2544.54,460.72,2544.54,439.65z"/>
	<path class="st1" d="M2668.16,440.26h-43.88c0.25,13.19,5.67,21.45,17.5,21.45c8.01,0,14.05-3.82,15.65-12.2l10.48,2.59
		c-2.34,11.83-11.96,19.1-26.5,19.1c-18.86,0-28.96-12.32-28.96-30.81c0-19.1,10.72-32.66,29.46-32.66
		c16.52,0,26.38,10.6,26.38,29.58C2668.28,439.4,2668.16,439.65,2668.16,440.26z M2624.9,432.38h31.31
		c-0.37-9.49-5.55-15.41-14.91-15.41C2632.3,416.97,2626.63,422.39,2624.9,432.38z"/>
	<path class="st1" d="M1712.27,534.05c21.32,0,32.05,9.12,32.05,25.02c0,16.15-10.72,25.14-32.05,25.14h-14.54v33.65h-12.2v-83.81
		H1712.27z M1712.27,573.62c12.82,0,19.35-4.81,19.35-14.54c0-9.37-6.53-14.42-19.47-14.42h-14.42v28.96H1712.27z"/>
	<path class="st1" d="M1757.63,617.86v-83.81h11.34v83.81H1757.63z"/>
	<path class="st1" d="M1837.74,581.38v36.48h-10.72v-18.24h-0.25c-2.83,13.06-12.08,19.47-22.92,19.47
		c-11.46,0-19.6-5.67-19.6-17.13c0-13.43,12.08-17.5,24.53-19.23l17.62-2.46c-0.25-10.23-5.79-14.67-14.54-14.67
		c-7.39,0-13.56,4.07-14.91,12.45l-10.6-3.7c2.1-11.34,11.71-18.73,26.01-18.73C1827.75,555.62,1837.74,564.25,1837.74,581.38z
		 M1826.52,588.65l-15.9,2.34c-8.01,1.23-14.67,2.96-14.67,9.98c0,5.92,4.31,8.38,10.35,8.38
		C1818.76,609.36,1826.52,597.9,1826.52,588.65z"/>
	<path class="st1" d="M1887.28,607.63l-1.48,9.98c-3.08,0.86-7.39,1.48-11.59,1.48c-9.86,0-16.15-3.57-16.15-14.91v-37.71h-10.23
		v-6.9c9.24-2.59,12.94-7.64,14.05-19.47h7.52v16.89h17.13v9.49h-17.13v35.25c0,5.92,2.59,7.52,7.76,7.52
		C1881.12,609.23,1884.82,608.37,1887.28,607.63z"/>
	<path class="st1" d="M1919.45,557.1h16.39v9.37h-16.39v51.4h-11.22v-51.4h-13.06v-9.37h13.06v-5.42c0-12.7,8.01-18.86,18.73-18.86
		c2.34,0,6.04,0.25,8.75,1.11l0.86,9c-1.6-0.74-3.94-1.23-7.15-1.23c-6.16,0-9.98,2.22-9.98,10.48V557.1z"/>
	<path class="st1" d="M1942.99,587.42c0-20.83,13.43-31.8,30.07-31.8c16.76,0,29.95,10.97,29.95,31.8
		c0,20.71-13.19,31.68-29.95,31.68C1956.42,619.09,1942.99,608.13,1942.99,587.42z M1991.18,587.42c0-13.93-7.15-21.69-18.12-21.69
		c-10.85,0-18.12,7.77-18.12,21.69c0,13.8,7.27,21.69,18.12,21.69C1984.03,609.11,1991.18,601.22,1991.18,587.42z"/>
	<path class="st1" d="M2018.54,617.86v-60.89h10.6v17.62h0.37c3.33-14.91,9-18.86,17.87-18.86c1.97,0,4.56,0.25,6.29,0.62
		l0.62,11.34c-1.73-0.37-4.56-0.62-6.9-0.62c-11.22,0-17.5,6.66-17.5,18.49v32.29H2018.54z"/>
	<path class="st1" d="M2063.89,617.86v-60.89h11.09v13.06h0.12c1.73-8.63,7.64-14.42,18.24-14.42c10.23,0,17.38,5.05,18.61,14.91
		h0.12c1.48-8.75,7.39-14.91,18.36-14.91c11.59,0,18.86,7.03,18.86,20.71v41.41h-11.22v-39.19c0-8.01-4.93-12.94-12.94-12.94
		c-7.89,0-12.82,5.3-12.82,14.54v37.59h-11.34v-38.58c0-8.87-4.93-13.56-12.94-13.56c-7.89,0-12.82,4.68-12.82,13.56v38.7H2063.89z"
		/>
</g>
</svg>
